<?xml version="1.0" encoding="utf-8"?><svg viewBox="0 0 50 50" xmlns="http://www.w3.org/2000/svg" xmlns:xlink="http://www.w3.org/1999/xlink"><style>:root>svg{display:none}:root>svg:target{display:block}</style><svg viewBox="0 0 16 16" id="form_document_file_icon_147462" xmlns="http://www.w3.org/2000/svg"><path fill="#5a7197" d="M13.812 4.507L10.131.646a.358.358 0 00-.26-.115H4.044A1.971 1.971 0 002.081 2.49v11.019c0 1.075.888 1.959 1.963 1.959h7.909a1.971 1.971 0 001.963-1.959V4.76a.387.387 0 00-.105-.253zm-3.574-2.702l2.464 2.587h-1.601a.859.859 0 01-.862-.859V1.805zm2.958 11.705c0 .679-.563 1.238-1.241 1.238H4.046a1.25 1.25 0 01-1.241-1.238V2.491a1.25 1.25 0 011.241-1.238h5.47v2.28A1.58 1.58 0 0011.1 5.114h2.097v8.396z"/><path fill="#5a7197" d="M5.03 12.258c-.199 0-.361.163-.361.361s.163.361.361.361h5.943c.199 0 .361-.163.361-.361s-.163-.361-.365-.361H5.03zM9.678 5.29a.36.36 0 00-.509 0L5.94 8.508a.354.354 0 00-.09.148l-.65 2.049a.363.363 0 00.346.47.377.377 0 00.109-.018l2.049-.645a.374.374 0 00.148-.09l3.219-3.229a.36.36 0 000-.509L9.679 5.292zm-3.58 4.972l.26-.823.562.563-.823.26zm1.498-.606l-.891-.891 2.717-2.71.884.884-2.71 2.717z"/></svg><svg viewBox="0 0 50 50" id="form_icon_142679" xmlns="http://www.w3.org/2000/svg"><path d="M28.939 5.733H21.06a.65.65 0 00-.65.65v.836h-7.779c-.997 0-1.808.874-1.808 1.949v33.151c0 1.075.811 1.949 1.808 1.949h24.736c.997 0 1.808-.874 1.808-1.949V9.167c0-1.075-.811-1.949-1.808-1.949H29.59v-.835a.651.651 0 00-.651-.65zm-7.229 1.3h6.579v1.672H21.71V7.033zm16.166 2.134v33.151c0 .352-.232.649-.508.649H12.632c-.275 0-.508-.297-.508-.649V9.167c0-.352.232-.649.508-.649h.889v31.48c0 .359.291.65.65.65H35.83a.65.65 0 00.65-.65V8.519h.889c.275 0 .507.297.507.648zm-2.696-.648V39.35H14.82V8.519h5.59v.836c0 .359.291.65.65.65h7.879a.65.65 0 00.65-.65v-.836h5.591zm-17.836 4.962h15.312a.65.65 0 110 1.3H17.344a.65.65 0 110-1.3zm15.962 4.66a.65.65 0 01-.65.65H17.344a.65.65 0 110-1.3h15.312a.65.65 0 01.65.65zm0 4.008a.65.65 0 01-.65.65H17.344a.65.65 0 110-1.3h15.312c.359.001.65.292.65.65zm0 4.01a.65.65 0 01-.65.65H17.344a.65.65 0 110-1.3h15.312a.65.65 0 01.65.65zm0 4.008a.65.65 0 01-.65.65H17.344a.65.65 0 110-1.3h15.312c.359.001.65.292.65.65zm0 4.01a.65.65 0 01-.65.65H17.344a.65.65 0 110-1.3h15.312a.65.65 0 01.65.65z"/></svg></svg>